<svg width="297" height="26" viewBox="0 0 297 26" fill="none" xmlns="http://www.w3.org/2000/svg">
<path fill-rule="evenodd" clip-rule="evenodd" d="M13.25 13L0 0V26L13.25 13ZM26.5 13L13.25 0V13V26L26.5 13ZM39.75 13L26.5 0V13V26L39.75 13ZM39.75 13V0L53 13L39.75 26V13Z" fill="#00B4C9"/>
<path d="M62.5866 4.23988L65.5014 9.3458H65.6401L68.5891 4.23988H73.9675L68.6587 13.0124L74.1757 21.7851H68.6587L65.6401 16.5763H65.5014L62.4822 21.7851H57L62.448 13.0124L57.1734 4.23988H62.5866ZM92.0653 13.0124C92.0653 14.9658 91.6806 16.6135 90.9111 17.9556C90.1422 19.2921 89.1041 20.3058 87.7972 20.9969C86.4903 21.6822 85.0326 22.0249 83.4252 22.0249C81.8057 22.0249 80.3425 21.6794 79.0356 20.9883C77.7348 20.2916 76.6997 19.275 75.9302 17.9385C75.1669 16.5963 74.7852 14.9543 74.7852 13.0124C74.7852 11.0592 75.1669 9.41432 75.9302 8.07787C76.6997 6.7357 77.7348 5.72197 79.0356 5.03661C80.3425 4.34554 81.8057 4 83.4252 4C85.0326 4 86.4903 4.34554 87.7972 5.03661C89.1041 5.72197 90.1422 6.7357 90.9111 8.07787C91.6806 9.41432 92.0653 11.0592 92.0653 13.0124ZM87.1034 13.0124C87.1034 11.9616 86.9611 11.0763 86.6778 10.3567C86.4005 9.63138 85.9871 9.08308 85.4375 8.71187C84.894 8.33492 84.2234 8.14645 83.4252 8.14645C82.6271 8.14645 81.9535 8.33492 81.4039 8.71187C80.8603 9.08308 80.4469 9.63138 80.1635 10.3567C79.8857 11.0763 79.747 11.9616 79.747 13.0124C79.747 14.0634 79.8857 14.9515 80.1635 15.6768C80.4469 16.3964 80.8603 16.9447 81.4039 17.3216C81.9535 17.6929 82.6271 17.8785 83.4252 17.8785C84.2234 17.8785 84.894 17.6929 85.4375 17.3216C85.9871 16.9447 86.4005 16.3964 86.6778 15.6768C86.9611 14.9515 87.1034 14.0634 87.1034 13.0124ZM93.7068 26V18.1184H94.9557C95.3722 17.8671 95.7484 17.513 96.0837 17.0561C96.4244 16.5992 96.7139 15.9452 96.9508 15.0942C97.1939 14.2433 97.3734 13.1039 97.4889 11.676L98.0788 4.23988H110.639V18.1184H112.513V26H107.864V21.7851H98.356V26H93.7068ZM100.473 18.1184H105.99V8.07787H102.416L102.139 11.676C102.057 12.7497 101.933 13.6893 101.766 14.4945C101.604 15.2942 101.41 15.9909 101.184 16.5849C100.964 17.1732 100.727 17.6844 100.473 18.1184ZM119.01 21.7851V4.23988H123.833V11.0934H130.218V4.23988H135.041V21.7851H130.218V14.9315H123.833V21.7851H119.01ZM141.946 21.7851H136.741L142.606 4.23988H149.198L155.062 21.7851H149.858L145.971 9.07168H145.832L141.946 21.7851ZM140.974 14.8629H150.759V18.4268H140.974V14.8629ZM172.524 10.8193H167.632C167.597 10.4195 167.505 10.0569 167.354 9.73131C167.21 9.40575 167.007 9.12591 166.747 8.89178C166.492 8.65186 166.183 8.46911 165.819 8.34348C165.455 8.21212 165.041 8.14645 164.578 8.14645C163.768 8.14645 163.083 8.34059 162.522 8.72899C161.967 9.11734 161.545 9.6742 161.256 10.3996C160.972 11.1249 160.83 11.9958 160.83 13.0124C160.83 14.0862 160.975 14.9857 161.265 15.7111C161.56 16.4307 161.985 16.9733 162.54 17.3388C163.095 17.6986 163.763 17.8785 164.543 17.8785C164.989 17.8785 165.388 17.8243 165.74 17.7157C166.093 17.6015 166.4 17.4388 166.66 17.2274C166.92 17.0161 167.132 16.762 167.293 16.465C167.461 16.1623 167.574 15.8224 167.632 15.4455L172.524 15.4798C172.467 16.2222 172.255 16.979 171.891 17.75C171.527 18.5153 171.009 19.2235 170.338 19.8746C169.673 20.52 168.849 21.0397 167.866 21.4338C166.883 21.8279 165.74 22.0249 164.44 22.0249C162.808 22.0249 161.345 21.6794 160.05 20.9883C158.76 20.2972 157.74 19.2806 156.988 17.9385C156.242 16.5963 155.869 14.9543 155.869 13.0124C155.869 11.0592 156.25 9.41432 157.014 8.07787C157.777 6.7357 158.807 5.72197 160.102 5.03661C161.398 4.34554 162.843 4 164.44 4C165.561 4 166.594 4.15135 167.536 4.45405C168.479 4.75675 169.306 5.19938 170.017 5.78194C170.728 6.35875 171.301 7.06982 171.735 7.91509C172.169 8.76042 172.432 9.72848 172.524 10.8193ZM174.227 8.07787V4.23988H189.667V8.07787H184.324V21.7851H179.57V8.07787H174.227ZM193.855 21.7851H188.65L194.514 4.23988H201.107L206.971 21.7851H201.766L197.88 9.07168H197.741L193.855 21.7851ZM192.883 14.8629H202.668V18.4268H192.883V14.8629ZM208.682 21.7851V4.23988H216.385C217.738 4.23988 218.875 4.41979 219.794 4.7796C220.719 5.13941 221.417 5.64772 221.885 6.30453C222.359 6.96132 222.596 7.73518 222.596 8.62616C222.596 9.27156 222.452 9.85984 222.162 10.391C221.879 10.9221 221.48 11.3676 220.965 11.7274C220.45 12.0815 219.849 12.3271 219.161 12.4642V12.6355C219.924 12.6641 220.618 12.8554 221.242 13.2095C221.867 13.5579 222.365 14.0405 222.735 14.6573C223.105 15.2685 223.29 15.9881 223.29 16.8162C223.29 17.7757 223.035 18.6296 222.527 19.3777C222.024 20.126 221.307 20.7142 220.375 21.1426C219.444 21.5709 218.334 21.7851 217.044 21.7851H208.682ZM213.505 17.9813H215.76C216.57 17.9813 217.177 17.8328 217.582 17.5358C217.987 17.2332 218.189 16.7876 218.189 16.1994C218.189 15.7882 218.094 15.4398 217.903 15.1542C217.712 14.8687 217.44 14.6516 217.088 14.5031C216.74 14.3546 216.322 14.2804 215.83 14.2804H213.505V17.9813ZM213.505 11.3334H215.483C215.905 11.3334 216.278 11.2677 216.602 11.1363C216.925 11.0049 217.177 10.8164 217.357 10.5709C217.542 10.3196 217.634 10.0141 217.634 9.65423C217.634 9.11161 217.437 8.69757 217.044 8.412C216.651 8.12075 216.154 7.9751 215.552 7.9751H213.505V11.3334ZM224.999 21.7851V4.23988H229.822V11.0934H236.206V4.23988H241.029V21.7851H236.206V14.9315H229.822V21.7851H224.999ZM243.32 4.23988H248.143V13.4237H248.281L254.597 4.23988H258.691V21.7851H253.868V12.567H253.764L247.345 21.7851H243.32V4.23988ZM271.92 21.7851L266.472 14.6916H265.795V21.7851H260.972V4.23988H265.795V10.8536H266.42L271.521 4.23988H277.593L270.827 12.6698L277.975 21.7851H271.92ZM283.884 21.7851H278.679L284.544 4.23988H291.136L297 21.7851H291.796L287.909 9.07168H287.771L283.884 21.7851ZM282.913 14.8629H292.698V18.4268H282.913V14.8629Z" fill="#00B4C9"/>
</svg>
