<svg width="175" height="61" viewBox="0 0 175 61" fill="none" xmlns="http://www.w3.org/2000/svg">
<path fill-rule="evenodd" clip-rule="evenodd" d="M11.8243 16.5208L0 2.54163V30.5L11.8243 16.5208ZM23.6486 16.5208L11.8243 2.54163V16.5208V30.5L23.6486 16.5208ZM35.473 16.5208L23.6486 2.54163V16.5208V30.5L35.473 16.5208ZM35.473 16.5208V2.54163L47.2973 16.5208L35.473 30.5V16.5208Z" fill="white"/>
<path d="M53.2264 6.93179L56.0481 12.3112H56.1824L59.0378 6.93179H64.2445L59.1049 16.1742L64.446 25.4166H59.1049L56.1824 19.929H56.0481L53.1256 25.4166H47.8182L53.092 16.1742L47.9861 6.93179H53.2264ZM81.7648 16.1742C81.7648 18.2321 81.3924 19.9681 80.6479 21.3821C79.9032 22.7901 78.8981 23.8582 77.6329 24.5863C76.3677 25.3083 74.9569 25.6693 73.4003 25.6693C71.8326 25.6693 70.4163 25.3053 69.1509 24.5772C67.8914 23.8432 66.8891 22.7721 66.1444 21.3641C65.4054 19.95 65.036 18.2201 65.036 16.1742C65.036 14.1163 65.4054 12.3834 66.1444 10.9754C66.8891 9.56133 67.8914 8.49327 69.1509 7.77121C70.4163 7.04312 71.8326 6.67908 73.4003 6.67908C74.9569 6.67908 76.3677 7.04312 77.6329 7.77121C78.8981 8.49327 79.9032 9.56133 80.6479 10.9754C81.3924 12.3834 81.7648 14.1163 81.7648 16.1742ZM76.9611 16.1742C76.9611 15.0671 76.8239 14.1344 76.5496 13.3762C76.281 12.612 75.8806 12.0344 75.3487 11.6433C74.8223 11.2461 74.1729 11.0476 73.4003 11.0476C72.6277 11.0476 71.9755 11.2461 71.4436 11.6433C70.9174 12.0344 70.5171 12.612 70.2427 13.3762C69.9741 14.1344 69.8395 15.0671 69.8395 16.1742C69.8395 17.2814 69.9741 18.2171 70.2427 18.9813C70.5171 19.7394 70.9174 20.3171 71.4436 20.7142C71.9755 21.1053 72.6277 21.3009 73.4003 21.3009C74.1729 21.3009 74.8223 21.1053 75.3487 20.7142C75.8806 20.3171 76.281 19.7394 76.5496 18.9813C76.8239 18.2171 76.9611 17.2814 76.9611 16.1742ZM83.354 29.8574V21.5536H84.5634C84.9664 21.2889 85.3303 20.9158 85.655 20.4344C85.9854 19.953 86.2654 19.2641 86.4948 18.3675C86.7301 17.4709 86.9037 16.2705 87.0156 14.7662L87.5867 6.93179H99.7468V21.5536H101.561V29.8574H97.0596V25.4166H87.8553V29.8574H83.354ZM89.9045 21.5536H95.2455V10.9754H91.7855L91.5168 14.7662C91.4386 15.8974 91.3182 16.8873 91.1557 17.7357C90.9989 18.5781 90.8114 19.3122 90.5931 19.938C90.3803 20.5577 90.1509 21.0963 89.9045 21.5536ZM1.10864 55.9166V37.4319H5.7779V44.6525H11.9588V37.4319H16.6281V55.9166H11.9588V48.696H5.7779V55.9166H1.10864ZM23.3128 55.9166H18.2741L23.951 37.4319H30.3335L36.0106 55.9166H30.9718L27.2095 42.5223H27.0752L23.3128 55.9166ZM22.3723 48.6238H31.8451V52.3786H22.3723V48.6238ZM52.9156 44.3635H48.1793C48.1457 43.9423 48.0561 43.5603 47.9104 43.2175C47.7704 42.8743 47.5746 42.5795 47.3227 42.3327C47.0763 42.0801 46.7767 41.8877 46.4241 41.7552C46.0712 41.6167 45.6711 41.5476 45.2232 41.5476C44.4392 41.5476 43.7759 41.7522 43.2327 42.1614C42.6954 42.5706 42.2867 43.1572 42.0067 43.9213C41.7324 44.6855 41.5952 45.6031 41.5952 46.6741C41.5952 47.8054 41.7352 48.7532 42.015 49.5172C42.3007 50.2754 42.7122 50.847 43.2497 51.2324C43.787 51.6113 44.4338 51.8009 45.1896 51.8009C45.6207 51.8009 46.0069 51.7437 46.3484 51.6294C46.6899 51.5091 46.9867 51.3376 47.2385 51.1149C47.4906 50.8923 47.6949 50.6246 47.8517 50.3115C48.014 49.9928 48.1232 49.6347 48.1793 49.2377L52.9156 49.2737C52.8596 50.0558 52.6552 50.8531 52.3026 51.6655C51.9498 52.4717 51.4487 53.2179 50.7993 53.9039C50.1556 54.5838 49.3577 55.1315 48.4061 55.5466C47.4542 55.9619 46.3484 56.1693 45.0889 56.1693C43.5098 56.1693 42.0935 55.8053 40.8394 55.0771C39.5908 54.3492 38.6027 53.2781 37.8748 51.864C37.1526 50.45 36.7915 48.7202 36.7915 46.6741C36.7915 44.6164 37.1611 42.8835 37.9001 41.4754C38.6392 40.0612 39.6357 38.9932 40.8898 38.2711C42.1439 37.5432 43.5434 37.179 45.0889 37.179C46.1748 37.179 47.1742 37.3386 48.0868 37.6576C48.9994 37.9763 49.7999 38.4427 50.4886 39.0565C51.1772 39.6642 51.7315 40.4132 52.1515 41.3038C52.5713 42.1944 52.826 43.2144 52.9156 44.3635ZM54.5637 41.4754V37.4319H69.512V41.4754H64.3389V55.9166H59.7368V41.4754H54.5637ZM73.5663 55.9166H68.5275L74.2044 37.4319H80.5869L86.264 55.9166H81.2252L77.4629 42.5223H77.3286L73.5663 55.9166ZM72.6256 48.6238H82.0985V52.3786H72.6256V48.6238ZM87.9203 55.9166V37.4319H95.3777C96.6878 37.4319 97.788 37.6212 98.6781 38.0004C99.5739 38.3794 100.249 38.9149 100.702 39.607C101.161 40.2991 101.391 41.1142 101.391 42.0531C101.391 42.733 101.251 43.3527 100.971 43.9124C100.697 44.472 100.31 44.9412 99.8118 45.3204C99.3136 45.6933 98.7313 45.952 98.0651 46.0967V46.2771C98.8042 46.3071 99.476 46.5087 100.081 46.8818C100.685 47.2488 101.167 47.7574 101.525 48.4073C101.883 49.0511 102.062 49.8093 102.062 50.6816C102.062 51.6927 101.816 52.5921 101.323 53.3803C100.837 54.1687 100.142 54.7884 99.241 55.2398C98.3395 55.6909 97.2646 55.9166 96.016 55.9166H87.9203ZM92.5898 51.9092H94.7733C95.557 51.9092 96.1449 51.7526 96.5367 51.4398C96.9286 51.121 97.1246 50.6516 97.1246 50.0319C97.1246 49.5986 97.0322 49.2316 96.8475 48.9306C96.6628 48.6297 96.3996 48.4012 96.0581 48.2446C95.722 48.0883 95.3162 48.01 94.8404 48.01H92.5898V51.9092ZM92.5898 44.9051H94.5044C94.913 44.9051 95.2741 44.836 95.5877 44.6975C95.9013 44.5592 96.1449 44.3607 96.3185 44.102C96.4975 43.8371 96.5871 43.5151 96.5871 43.1361C96.5871 42.5645 96.3967 42.1281 96.016 41.8274C95.6352 41.5204 95.1538 41.3671 94.5715 41.3671H92.5898V44.9051ZM103.717 55.9166V37.4319H108.386V44.6525H114.567V37.4319H119.236V55.9166H114.567V48.696H108.386V55.9166H103.717ZM121.453 37.4319H126.123V47.1075H126.257L132.371 37.4319H136.335V55.9166H131.665V46.2049H131.565L125.35 55.9166H121.453V37.4319ZM149.141 55.9166L143.868 48.4434H143.213V55.9166H138.543V37.4319H143.213V44.3998H143.817L148.755 37.4319H154.634L148.083 46.3132L155.003 55.9166H149.141ZM160.724 55.9166H155.686L161.363 37.4319H167.745L173.422 55.9166H168.383L164.621 42.5223H164.487L160.724 55.9166ZM159.784 48.6238H169.257V52.3786H159.784V48.6238Z" fill="white"/>
</svg>
